<svg width="24" height="24" viewBox="0 0 24 24" fill="none" xmlns="http://www.w3.org/2000/svg">
<circle cx="12" cy="8" r="2.5" stroke="#666666" stroke-linecap="round"/>
<circle cx="6.5" cy="8.5" r="2" stroke="#666666" stroke-linecap="round"/>
<circle cx="17.5" cy="8.5" r="2" stroke="#666666" stroke-linecap="round"/>
<path d="M12 12.5C16.0802 12.5 17.1335 15.8022 17.4054 17.507C17.4924 18.0524 17.0523 18.5 16.5 18.5H7.5C6.94771 18.5 6.50763 18.0524 6.59461 17.507C6.86649 15.8022 7.91976 12.5 12 12.5Z" stroke="#666666" stroke-linecap="round"/>
<path d="M21.2965 15.4162L20.8115 15.5377L21.2965 15.4162ZM14.6722 13.1176L14.257 12.839L13.9508 13.2955L14.4341 13.5572L14.6722 13.1176ZM17.1813 16.5L16.701 16.639L16.8055 17H17.1813V16.5ZM17.5 12C18.5277 12 19.2495 12.5027 19.7783 13.2069C20.3177 13.9253 20.6344 14.8306 20.8115 15.5377L21.7816 15.2948C21.5904 14.5315 21.2328 13.4787 20.578 12.6065C19.9126 11.7203 18.9202 11 17.5 11V12ZM15.0874 13.3962C15.6272 12.5917 16.3865 12 17.5 12V11C15.9532 11 14.9188 11.8526 14.257 12.839L15.0874 13.3962ZM14.4341 13.5572C15.7286 14.2585 16.3778 15.5218 16.701 16.639L17.6616 16.361C17.3026 15.1203 16.5395 13.5604 14.9103 12.6779L14.4341 13.5572ZM20.395 16H17.1813V17H20.395V16ZM20.8115 15.5377C20.8653 15.7526 20.7075 16 20.395 16V17C21.2657 17 22.0152 16.2277 21.7816 15.2948L20.8115 15.5377Z" fill="#666666"/>
<path d="M2.6976 15.4162L3.18263 15.5377L2.6976 15.4162ZM9.32193 13.1176L9.73713 12.839L10.0434 13.2955L9.56007 13.5572L9.32193 13.1176ZM6.81283 16.5L7.29314 16.639L7.18868 17H6.81283V16.5ZM6.49414 12C5.46641 12 4.74463 12.5027 4.21582 13.2069C3.67645 13.9253 3.35971 14.8306 3.18263 15.5377L2.21258 15.2948C2.40372 14.5315 2.76129 13.4787 3.41615 12.6065C4.08158 11.7203 5.07395 11 6.49414 11V12ZM8.90673 13.3962C8.36696 12.5917 7.60763 12 6.49414 12V11C8.04096 11 9.07534 11.8526 9.73713 12.839L8.90673 13.3962ZM9.56007 13.5572C8.2655 14.2585 7.61633 15.5218 7.29314 16.639L6.33253 16.361C6.6915 15.1203 7.4546 13.5604 9.08379 12.6779L9.56007 13.5572ZM3.59915 16H6.81283V17H3.59915V16ZM3.18263 15.5377C3.12882 15.7526 3.28665 16 3.59915 16V17C2.72842 17 1.97895 16.2277 2.21258 15.2948L3.18263 15.5377Z" fill="#666666"/>
</svg>
