<svg id="SvgjsSvg1001" width="288" height="288" xmlns="http://www.w3.org/2000/svg" version="1.1" xmlns:xlink="http://www.w3.org/1999/xlink" xmlns:svgjs="http://svgjs.com/svgjs"><defs id="SvgjsDefs1002"></defs><g id="SvgjsG1008"><svg xmlns="http://www.w3.org/2000/svg" fill="none" viewBox="0 0 24 24" width="288" height="288"><path stroke="#666666" d="M5 11.784C5 10.4262 5 9.74733 5.27446 9.15059C5.54892 8.55385 6.06437 8.11204 7.09525 7.22842L8.09525 6.37128C9.95857 4.77415 10.8902 3.97559 12 3.97559C13.1098 3.97559 14.0414 4.77415 15.9047 6.37128L16.9047 7.22842C17.9356 8.11204 18.4511 8.55385 18.7255 9.15059C19 9.74733 19 10.4262 19 11.784V16.0244C19 17.91 19 18.8528 18.4142 19.4386C17.8284 20.0244 16.8856 20.0244 15 20.0244H9C7.11438 20.0244 6.17157 20.0244 5.58579 19.4386C5 18.8528 5 17.91 5 16.0244V11.784Z" class="colorStroke5218D0 svgStroke"></path><path stroke="#666666" stroke-linecap="round" stroke-linejoin="round" d="M14.5 20.0244V15.0244C14.5 14.4721 14.0523 14.0244 13.5 14.0244H10.5C9.94772 14.0244 9.5 14.4721 9.5 15.0244V20.0244" class="colorStroke5218D0 svgStroke"></path></svg></g></svg>