<svg width="24" height="24" viewBox="0 0 24 24" fill="none" xmlns="http://www.w3.org/2000/svg">
<g clip-path="url(#clip0_788_612)">
<path d="M11.9992 24C11.2515 24 10.4926 23.8103 9.82297 23.4197L3.19382 19.5917C1.85459 18.8105 1.01758 17.3708 1.01758 15.8196V8.186C1.01758 6.63474 1.85459 5.19507 3.19382 4.41386L9.82297 0.58591C11.1622 -0.195303 12.8251 -0.195303 14.1754 0.58591L20.8046 4.41386C22.1438 5.19507 22.9808 6.63474 22.9808 8.186V15.8196C22.9808 17.3708 22.1438 18.8105 20.8046 19.5917L14.1754 23.4197C13.5058 23.8103 12.7469 24 11.9992 24Z" fill="#FB4E4E"/>
<circle cx="11.9999" cy="16.75" r="0.75" fill="white"/>
<line x1="11.9999" y1="7.25" x2="11.9999" y2="13.75" stroke="white" stroke-width="1.5" stroke-linecap="round"/>
</g>
<defs>
<clipPath id="clip0_788_612">
<rect width="24" height="24" fill="white"/>
</clipPath>
</defs>
</svg>
