<svg width="24" height="24" viewBox="0 0 24 24" fill="none" xmlns="http://www.w3.org/2000/svg">
<path fill-rule="evenodd" clip-rule="evenodd" d="M15.9202 12.7988C15.9725 12.5407 16 12.2736 16 12C16 9.79086 14.2091 8 12 8C11.7264 8 11.4593 8.02746 11.2012 8.07977L12.1239 9.00251C13.6822 9.06583 14.9342 10.3178 14.9975 11.8761L15.9202 12.7988ZM9.39311 10.5143C9.14295 10.9523 9 11.4595 9 12C9 13.6569 10.3431 15 12 15C12.5405 15 13.0477 14.857 13.4857 14.6069L14.212 15.3332C13.5784 15.7545 12.8179 16 12 16C9.79086 16 8 14.2091 8 12C8 11.1821 8.24547 10.4216 8.66676 9.78799L9.39311 10.5143Z" fill="#323232"/>
<path fill-rule="evenodd" clip-rule="evenodd" d="M18.5592 15.4985C19.4006 14.7404 20.0874 13.9744 20.574 13.3836L20.6328 13.3124C20.9633 12.913 21.2703 12.5421 21.2703 12C21.2703 11.4579 20.9633 11.087 20.6328 10.6876L20.574 10.6164C19.849 9.73623 18.6799 8.46727 17.2169 7.41472C15.7579 6.365 13.9639 5.5 12 5.5C10.9973 5.5 10.0388 5.72551 9.14664 6.08597L9.92366 6.86299C10.594 6.63362 11.2896 6.5 12 6.5C13.6718 6.5 15.2619 7.24007 16.6329 8.22646C18 9.21001 19.107 10.4082 19.8021 11.2522C20.2265 11.7674 20.2703 11.8565 20.2703 12C20.2703 12.1435 20.2265 12.2326 19.8021 12.7478C19.3276 13.3239 18.6611 14.0651 17.8511 14.7904L18.5592 15.4985ZM8.46349 7.52414C8.08516 7.73646 7.71894 7.97335 7.36714 8.22646C6.00006 9.21001 4.89306 10.4082 4.19792 11.2522C3.77356 11.7674 3.72974 11.8565 3.72974 12C3.72974 12.1435 3.77356 12.2326 4.19792 12.7478C4.89306 13.5918 6.00006 14.79 7.36714 15.7735C8.73816 16.7599 10.3282 17.5 12 17.5C13.6718 17.5 15.2619 16.7599 16.6329 15.7735C16.6484 15.7624 16.6639 15.7512 16.6793 15.74L17.3946 16.4553C17.3359 16.499 17.2766 16.5423 17.2169 16.5853C15.7579 17.635 13.9639 18.5 12 18.5C10.0361 18.5 8.24216 17.635 6.78312 16.5853C5.32014 15.5327 4.15099 14.2638 3.42604 13.3836L3.36723 13.3124C3.0367 12.913 2.72974 12.5421 2.72974 12C2.72974 11.4579 3.03671 11.087 3.36723 10.6876L3.42604 10.6164C4.15099 9.73623 5.32014 8.46727 6.78312 7.41472C7.08537 7.19726 7.402 6.98773 7.73153 6.79218L8.46349 7.52414Z" fill="#323232"/>
<path d="M5 2L21 18" stroke="#323232"/>
</svg>
